<svg width="395" height="81" viewBox="0 0 395 81" fill="none" xmlns="http://www.w3.org/2000/svg">
<path d="M21.371 42.281H9.417L7.439 48H1.118L11.911 17.943H18.92L29.713 48H23.349L21.371 42.281ZM19.737 37.465L15.394 24.909L11.051 37.465H19.737ZM32.2853 32.95C32.2853 29.9973 32.9446 27.36 34.2633 25.038C35.6106 22.6873 37.4309 20.867 39.7243 19.577C42.0463 18.2583 44.6406 17.599 47.5073 17.599C50.8613 17.599 53.7996 18.459 56.3223 20.179C58.8449 21.899 60.6079 24.2783 61.6113 27.317H54.6883C54.0003 25.8837 53.0256 24.8087 51.7643 24.092C50.5316 23.3753 49.0983 23.017 47.4643 23.017C45.7156 23.017 44.1533 23.4327 42.7773 24.264C41.4299 25.0667 40.3693 26.2133 39.5953 27.704C38.8499 29.1947 38.4773 30.9433 38.4773 32.95C38.4773 34.928 38.8499 36.6767 39.5953 38.196C40.3693 39.6867 41.4299 40.8477 42.7773 41.679C44.1533 42.4817 45.7156 42.883 47.4643 42.883C49.0983 42.883 50.5316 42.5247 51.7643 41.808C53.0256 41.0627 54.0003 39.9733 54.6883 38.54H61.6113C60.6079 41.6073 58.8449 44.001 56.3223 45.721C53.8283 47.4123 50.8899 48.258 47.5073 48.258C44.6406 48.258 42.0463 47.613 39.7243 46.323C37.4309 45.0043 35.6106 43.184 34.2633 40.862C32.9446 38.54 32.2853 35.9027 32.2853 32.95ZM65.2911 32.95C65.2911 29.9973 65.9505 27.36 67.2691 25.038C68.6165 22.6873 70.4368 20.867 72.7301 19.577C75.0521 18.2583 77.6465 17.599 80.5131 17.599C83.8671 17.599 86.8055 18.459 89.3281 20.179C91.8508 21.899 93.6138 24.2783 94.6171 27.317H87.6941C87.0061 25.8837 86.0315 24.8087 84.7701 24.092C83.5375 23.3753 82.1041 23.017 80.4701 23.017C78.7215 23.017 77.1591 23.4327 75.7831 24.264C74.4358 25.0667 73.3751 26.2133 72.6011 27.704C71.8558 29.1947 71.4831 30.9433 71.4831 32.95C71.4831 34.928 71.8558 36.6767 72.6011 38.196C73.3751 39.6867 74.4358 40.8477 75.7831 41.679C77.1591 42.4817 78.7215 42.883 80.4701 42.883C82.1041 42.883 83.5375 42.5247 84.7701 41.808C86.0315 41.0627 87.0061 39.9733 87.6941 38.54H94.6171C93.6138 41.6073 91.8508 44.001 89.3281 45.721C86.8341 47.4123 83.8958 48.258 80.5131 48.258C77.6465 48.258 75.0521 47.613 72.7301 46.323C70.4368 45.0043 68.6165 43.184 67.2691 40.862C65.9505 38.54 65.2911 35.9027 65.2911 32.95ZM113.691 48.301C110.882 48.301 108.302 47.6417 105.951 46.323C103.6 45.0043 101.737 43.184 100.361 40.862C98.985 38.5113 98.297 35.8597 98.297 32.907C98.297 29.983 98.985 27.36 100.361 25.038C101.737 22.6873 103.6 20.8527 105.951 19.534C108.302 18.2153 110.882 17.556 113.691 17.556C116.529 17.556 119.109 18.2153 121.431 19.534C123.782 20.8527 125.631 22.6873 126.978 25.038C128.354 27.36 129.042 29.983 129.042 32.907C129.042 35.8597 128.354 38.5113 126.978 40.862C125.631 43.184 123.782 45.0043 121.431 46.323C119.08 47.6417 116.5 48.301 113.691 48.301ZM113.691 42.926C115.497 42.926 117.088 42.5247 118.464 41.722C119.84 40.8907 120.915 39.7153 121.689 38.196C122.463 36.6767 122.85 34.9137 122.85 32.907C122.85 30.9003 122.463 29.1517 121.689 27.661C120.915 26.1417 119.84 24.9807 118.464 24.178C117.088 23.3753 115.497 22.974 113.691 22.974C111.885 22.974 110.28 23.3753 108.875 24.178C107.499 24.9807 106.424 26.1417 105.65 27.661C104.876 29.1517 104.489 30.9003 104.489 32.907C104.489 34.9137 104.876 36.6767 105.65 38.196C106.424 39.7153 107.499 40.8907 108.875 41.722C110.28 42.5247 111.885 42.926 113.691 42.926ZM139.455 17.986V36.562C139.455 38.5973 139.985 40.1597 141.046 41.249C142.106 42.3097 143.597 42.84 145.518 42.84C147.467 42.84 148.972 42.3097 150.033 41.249C151.093 40.1597 151.624 38.5973 151.624 36.562V17.986H157.687V36.519C157.687 39.0703 157.128 41.2347 156.01 43.012C154.92 44.7607 153.444 46.0793 151.581 46.968C149.746 47.8567 147.696 48.301 145.432 48.301C143.196 48.301 141.16 47.8567 139.326 46.968C137.52 46.0793 136.086 44.7607 135.026 43.012C133.965 41.2347 133.435 39.0703 133.435 36.519V17.986H139.455ZM189.174 48H183.154L169.523 27.403V48H163.503V17.943H169.523L183.154 38.583V17.943H189.174V48ZM215.548 17.986V22.845H207.55V48H201.53V22.845H193.532V17.986H215.548ZM240.679 17.986C243.832 17.986 246.598 18.6023 248.978 19.835C251.386 21.0677 253.235 22.8307 254.525 25.124C255.843 27.3887 256.503 30.026 256.503 33.036C256.503 36.046 255.843 38.6833 254.525 40.948C253.235 43.184 251.386 44.9183 248.978 46.151C246.598 47.3837 243.832 48 240.679 48H230.187V17.986H240.679ZM240.464 42.883C243.617 42.883 246.054 42.023 247.774 40.303C249.494 38.583 250.354 36.1607 250.354 33.036C250.354 29.9113 249.494 27.4747 247.774 25.726C246.054 23.9487 243.617 23.06 240.464 23.06H236.207V42.883H240.464ZM267.029 22.845V30.37H277.134V35.143H267.029V43.098H278.424V48H261.009V17.943H278.424V22.845H267.029ZM304.32 17.986V22.845H296.322V48H290.302V22.845H282.304V17.986H304.32ZM327.116 42.281H315.162L313.184 48H306.863L317.656 17.943H324.665L335.458 48H329.094L327.116 42.281ZM325.482 37.465L321.139 24.909L316.796 37.465H325.482ZM345.512 17.986V48H339.492V17.986H345.512ZM357.48 43.227H367.37V48H351.46V17.986H357.48V43.227ZM381.559 48.301C379.467 48.301 377.575 47.9427 375.883 47.226C374.221 46.5093 372.902 45.4773 371.927 44.13C370.953 42.7827 370.451 41.1917 370.422 39.357H376.872C376.958 40.5897 377.388 41.5643 378.162 42.281C378.965 42.9977 380.054 43.356 381.43 43.356C382.835 43.356 383.939 43.0263 384.741 42.367C385.544 41.679 385.945 40.7903 385.945 39.701C385.945 38.8123 385.673 38.0813 385.128 37.508C384.584 36.9347 383.896 36.4903 383.064 36.175C382.262 35.831 381.144 35.4583 379.71 35.057C377.761 34.4837 376.17 33.9247 374.937 33.38C373.733 32.8067 372.687 31.961 371.798 30.843C370.938 29.6963 370.508 28.177 370.508 26.285C370.508 24.5077 370.953 22.9597 371.841 21.641C372.73 20.3223 373.977 19.319 375.582 18.631C377.188 17.9143 379.022 17.556 381.086 17.556C384.182 17.556 386.691 18.3157 388.611 19.835C390.561 21.3257 391.636 23.4183 391.836 26.113H385.214C385.157 25.081 384.713 24.2353 383.881 23.576C383.079 22.888 382.004 22.544 380.656 22.544C379.481 22.544 378.535 22.845 377.818 23.447C377.13 24.049 376.786 24.9233 376.786 26.07C376.786 26.8727 377.044 27.5463 377.56 28.091C378.105 28.607 378.764 29.037 379.538 29.381C380.341 29.6963 381.459 30.069 382.892 30.499C384.842 31.0723 386.433 31.6457 387.665 32.219C388.898 32.7923 389.959 33.6523 390.847 34.799C391.736 35.9457 392.18 37.4507 392.18 39.314C392.18 40.9193 391.765 42.41 390.933 43.786C390.102 45.162 388.884 46.2657 387.278 47.097C385.673 47.8997 383.767 48.301 381.559 48.301Z" fill="black"/>
<line y1="77" x2="131.007" y2="77" stroke="#06B6D4" stroke-width="8"/>
<line x1="130.997" y1="77" x2="262.003" y2="77" stroke="#2774AE" stroke-width="8"/>
<line x1="261.993" y1="77" x2="393" y2="77" stroke="#034694" stroke-width="8"/>
</svg>
