<svg width="194" height="81" viewBox="0 0 194 81" fill="none" xmlns="http://www.w3.org/2000/svg">
<path d="M25.327 53.289L20.769 47.828C19.5077 48.1433 18.2177 48.301 16.899 48.301C14.0897 48.301 11.5097 47.6417 9.159 46.323C6.80833 45.0043 4.945 43.184 3.569 40.862C2.193 38.5113 1.505 35.8597 1.505 32.907C1.505 29.983 2.193 27.36 3.569 25.038C4.945 22.6873 6.80833 20.8527 9.159 19.534C11.5097 18.2153 14.0897 17.556 16.899 17.556C19.737 17.556 22.317 18.2153 24.639 19.534C26.9897 20.8527 28.8387 22.6873 30.186 25.038C31.562 27.36 32.25 29.983 32.25 32.907C32.25 35.573 31.6767 38.0097 30.53 40.217C29.412 42.3957 27.8783 44.173 25.929 45.549L32.809 53.289H25.327ZM7.697 32.907C7.697 34.9137 8.084 36.6767 8.858 38.196C9.632 39.7153 10.707 40.8907 12.083 41.722C13.4877 42.5247 15.093 42.926 16.899 42.926C18.705 42.926 20.296 42.5247 21.672 41.722C23.048 40.8907 24.123 39.7153 24.897 38.196C25.671 36.6767 26.058 34.9137 26.058 32.907C26.058 30.9003 25.671 29.1517 24.897 27.661C24.123 26.1417 23.048 24.9807 21.672 24.178C20.296 23.3753 18.705 22.974 16.899 22.974C15.093 22.974 13.4877 23.3753 12.083 24.178C10.707 24.9807 9.632 26.1417 8.858 27.661C8.084 29.1517 7.697 30.9003 7.697 32.907ZM52.2927 48L45.6707 36.304H42.8327V48H36.8127V17.986H48.0787C50.4007 17.986 52.3787 18.4017 54.0127 19.233C55.6467 20.0357 56.865 21.1393 57.6677 22.544C58.499 23.92 58.9147 25.468 58.9147 27.188C58.9147 29.166 58.3414 30.9577 57.1947 32.563C56.048 34.1397 54.3424 35.229 52.0777 35.831L59.2587 48H52.2927ZM42.8327 31.789H47.8637C49.4977 31.789 50.716 31.402 51.5187 30.628C52.3214 29.8253 52.7227 28.7217 52.7227 27.317C52.7227 25.941 52.3214 24.8803 51.5187 24.135C50.716 23.361 49.4977 22.974 47.8637 22.974H42.8327V31.789ZM73.1437 32.95C73.1437 29.9973 73.803 27.36 75.1217 25.038C76.469 22.6873 78.2893 20.867 80.5827 19.577C82.9047 18.2583 85.499 17.599 88.3657 17.599C91.7197 17.599 94.658 18.459 97.1807 20.179C99.7033 21.899 101.466 24.2783 102.47 27.317H95.5467C94.8587 25.8837 93.884 24.8087 92.6227 24.092C91.39 23.3753 89.9567 23.017 88.3227 23.017C86.574 23.017 85.0117 23.4327 83.6357 24.264C82.2883 25.0667 81.2277 26.2133 80.4537 27.704C79.7083 29.1947 79.3357 30.9433 79.3357 32.95C79.3357 34.928 79.7083 36.6767 80.4537 38.196C81.2277 39.6867 82.2883 40.8477 83.6357 41.679C85.0117 42.4817 86.574 42.883 88.3227 42.883C89.9567 42.883 91.39 42.5247 92.6227 41.808C93.884 41.0627 94.8587 39.9733 95.5467 38.54H102.47C101.466 41.6073 99.7033 44.001 97.1807 45.721C94.6867 47.4123 91.7483 48.258 88.3657 48.258C85.499 48.258 82.9047 47.613 80.5827 46.323C78.2893 45.0043 76.469 43.184 75.1217 40.862C73.803 38.54 73.1437 35.9027 73.1437 32.95ZM121.544 48.301C118.734 48.301 116.154 47.6417 113.804 46.323C111.453 45.0043 109.59 43.184 108.214 40.862C106.838 38.5113 106.15 35.8597 106.15 32.907C106.15 29.983 106.838 27.36 108.214 25.038C109.59 22.6873 111.453 20.8527 113.804 19.534C116.154 18.2153 118.734 17.556 121.544 17.556C124.382 17.556 126.962 18.2153 129.284 19.534C131.634 20.8527 133.483 22.6873 134.831 25.038C136.207 27.36 136.895 29.983 136.895 32.907C136.895 35.8597 136.207 38.5113 134.831 40.862C133.483 43.184 131.634 45.0043 129.284 46.323C126.933 47.6417 124.353 48.301 121.544 48.301ZM121.544 42.926C123.35 42.926 124.941 42.5247 126.317 41.722C127.693 40.8907 128.768 39.7153 129.542 38.196C130.316 36.6767 130.703 34.9137 130.703 32.907C130.703 30.9003 130.316 29.1517 129.542 27.661C128.768 26.1417 127.693 24.9807 126.317 24.178C124.941 23.3753 123.35 22.974 121.544 22.974C119.738 22.974 118.132 23.3753 116.728 24.178C115.352 24.9807 114.277 26.1417 113.503 27.661C112.729 29.1517 112.342 30.9003 112.342 32.907C112.342 34.9137 112.729 36.6767 113.503 38.196C114.277 39.7153 115.352 40.8907 116.728 41.722C118.132 42.5247 119.738 42.926 121.544 42.926ZM151.865 17.986C155.019 17.986 157.785 18.6023 160.164 19.835C162.572 21.0677 164.421 22.8307 165.711 25.124C167.03 27.3887 167.689 30.026 167.689 33.036C167.689 36.046 167.03 38.6833 165.711 40.948C164.421 43.184 162.572 44.9183 160.164 46.151C157.785 47.3837 155.019 48 151.865 48H141.373V17.986H151.865ZM151.65 42.883C154.804 42.883 157.24 42.023 158.96 40.303C160.68 38.583 161.54 36.1607 161.54 33.036C161.54 29.9113 160.68 27.4747 158.96 25.726C157.24 23.9487 154.804 23.06 151.65 23.06H147.393V42.883H151.65ZM178.216 22.845V30.37H188.321V35.143H178.216V43.098H189.611V48H172.196V17.943H189.611V22.845H178.216Z" fill="black"/>
<line y1="77" x2="64.6699" y2="77" stroke="#06B6D4" stroke-width="8"/>
<line x1="64.665" y1="77" x2="129.335" y2="77" stroke="#2774AE" stroke-width="8"/>
<line x1="129.33" y1="77" x2="194" y2="77" stroke="#034694" stroke-width="8"/>
</svg>
