<svg width="247" height="81" viewBox="0 0 247 81" fill="none" xmlns="http://www.w3.org/2000/svg">
<path d="M8.901 17.986V36.562C8.901 38.5973 9.43133 40.1597 10.492 41.249C11.5527 42.3097 13.0433 42.84 14.964 42.84C16.9133 42.84 18.4183 42.3097 19.479 41.249C20.5397 40.1597 21.07 38.5973 21.07 36.562V17.986H27.133V36.519C27.133 39.0703 26.574 41.2347 25.456 43.012C24.3667 44.7607 22.8903 46.0793 21.027 46.968C19.1923 47.8567 17.1427 48.301 14.878 48.301C12.642 48.301 10.6067 47.8567 8.772 46.968C6.966 46.0793 5.53267 44.7607 4.472 43.012C3.41133 41.2347 2.881 39.0703 2.881 36.519V17.986H8.901ZM54.8364 27.274C54.8364 28.8793 54.4494 30.3843 53.6754 31.789C52.9301 33.1937 51.7404 34.326 50.1064 35.186C48.5011 36.046 46.4658 36.476 44.0004 36.476H38.9694V48H32.9494V17.986H44.0004C46.3224 17.986 48.3004 18.3873 49.9344 19.19C51.5684 19.9927 52.7868 21.0963 53.5894 22.501C54.4208 23.9057 54.8364 25.4967 54.8364 27.274ZM43.7424 31.617C45.4051 31.617 46.6378 31.2443 47.4404 30.499C48.2431 29.725 48.6444 28.65 48.6444 27.274C48.6444 24.35 47.0104 22.888 43.7424 22.888H38.9694V31.617H43.7424ZM65.1306 17.986V48H59.1106V17.986H65.1306ZM91.8164 17.986C94.9698 17.986 97.7361 18.6023 100.115 19.835C102.523 21.0677 104.372 22.8307 105.662 25.124C106.981 27.3887 107.64 30.026 107.64 33.036C107.64 36.046 106.981 38.6833 105.662 40.948C104.372 43.184 102.523 44.9183 100.115 46.151C97.7361 47.3837 94.9698 48 91.8164 48H81.3244V17.986H91.8164ZM91.6014 42.883C94.7548 42.883 97.1914 42.023 98.9114 40.303C100.631 38.583 101.491 36.1607 101.491 33.036C101.491 29.9113 100.631 27.4747 98.9114 25.726C97.1914 23.9487 94.7548 23.06 91.6014 23.06H87.3444V42.883H91.6014ZM118.167 22.845V30.37H128.272V35.143H118.167V43.098H129.562V48H112.147V17.943H129.562V22.845H118.167ZM155.457 17.986V22.845H147.459V48H141.439V22.845H133.441V17.986H155.457ZM178.254 42.281H166.3L164.322 48H158.001L168.794 17.943H175.803L186.596 48H180.232L178.254 42.281ZM176.62 37.465L172.277 24.909L167.934 37.465H176.62ZM196.65 17.986V48H190.63V17.986H196.65ZM208.618 43.227H218.508V48H202.598V17.986H208.618V43.227ZM232.697 48.301C230.605 48.301 228.713 47.9427 227.021 47.226C225.359 46.5093 224.04 45.4773 223.065 44.13C222.091 42.7827 221.589 41.1917 221.56 39.357H228.01C228.096 40.5897 228.526 41.5643 229.3 42.281C230.103 42.9977 231.192 43.356 232.568 43.356C233.973 43.356 235.077 43.0263 235.879 42.367C236.682 41.679 237.083 40.7903 237.083 39.701C237.083 38.8123 236.811 38.0813 236.266 37.508C235.722 36.9347 235.034 36.4903 234.202 36.175C233.4 35.831 232.282 35.4583 230.848 35.057C228.899 34.4837 227.308 33.9247 226.075 33.38C224.871 32.8067 223.825 31.961 222.936 30.843C222.076 29.6963 221.646 28.177 221.646 26.285C221.646 24.5077 222.091 22.9597 222.979 21.641C223.868 20.3223 225.115 19.319 226.72 18.631C228.326 17.9143 230.16 17.556 232.224 17.556C235.32 17.556 237.829 18.3157 239.749 19.835C241.699 21.3257 242.774 23.4183 242.974 26.113H236.352C236.295 25.081 235.851 24.2353 235.019 23.576C234.217 22.888 233.142 22.544 231.794 22.544C230.619 22.544 229.673 22.845 228.956 23.447C228.268 24.049 227.924 24.9233 227.924 26.07C227.924 26.8727 228.182 27.5463 228.698 28.091C229.243 28.607 229.902 29.037 230.676 29.381C231.479 29.6963 232.597 30.069 234.03 30.499C235.98 31.0723 237.571 31.6457 238.803 32.219C240.036 32.7923 241.097 33.6523 241.985 34.799C242.874 35.9457 243.318 37.4507 243.318 39.314C243.318 40.9193 242.903 42.41 242.071 43.786C241.24 45.162 240.022 46.2657 238.416 47.097C236.811 47.8997 234.905 48.301 232.697 48.301Z" fill="black"/>
<line y1="77" x2="82.3375" y2="77" stroke="#06B6D4" stroke-width="8"/>
<line x1="82.3312" y1="77" x2="164.669" y2="77" stroke="#2774AE" stroke-width="8"/>
<line x1="164.662" y1="77" x2="247" y2="77" stroke="#034694" stroke-width="8"/>
</svg>
