<svg width="1206" height="879" viewBox="0 0 1206 879" fill="none" xmlns="http://www.w3.org/2000/svg">
<path d="M50.4073 795.007H4.06104V872.611C4.06104 873.895 5.10175 874.936 6.3855 874.936H1199.61C1200.9 874.936 1201.94 873.895 1201.94 872.611V369.554L1149.98 435.129C1148.8 436.615 1146.44 436.142 1145.92 434.318L1122.07 349.974C1121.79 348.973 1120.87 348.282 1119.83 348.282H1053.17C1052.55 348.282 1051.96 348.529 1051.52 348.969L1005.87 394.996C1005.18 395.687 1004.14 395.878 1003.25 395.475L948.706 370.652C947.428 370.071 945.93 370.746 945.52 372.089L903.754 508.935C903.208 510.721 900.884 511.167 899.716 509.709L853.58 452.123C852.527 450.809 850.47 451.015 849.699 452.512L841.625 468.188C840.973 469.455 839.343 469.842 838.191 469.003L813.264 450.854C812.145 450.039 810.566 450.377 809.879 451.578L775.514 511.628C775 512.526 773.954 512.977 772.949 512.733L732.974 503.031C731.769 502.738 730.546 503.444 730.196 504.633L687.314 650.339C687.114 651.02 686.613 651.572 685.956 651.838L623.162 677.238C622.075 677.678 620.831 677.239 620.26 676.216L575.895 596.702C574.991 595.082 572.648 595.121 571.798 596.77L552.287 634.654C552.019 635.173 551.565 635.573 551.016 635.773L509.089 651.037C508.429 651.277 507.913 651.802 507.685 652.466L482.881 724.707C482.631 725.435 482.037 725.992 481.295 726.195L424.813 741.617C424.317 741.752 423.88 742.048 423.571 742.458L385.59 792.737C384.704 793.91 382.966 793.976 381.993 792.875L352.344 759.294C351.577 758.425 350.288 758.254 349.321 758.892L261.024 817.131C260.228 817.655 259.193 817.641 258.411 817.095L228.196 795.958C227.383 795.389 226.298 795.399 225.496 795.983L198.232 815.834C197.835 816.124 197.356 816.28 196.864 816.28H140.151C139.534 816.28 138.942 816.034 138.506 815.598L82.6081 759.636C81.6225 758.649 79.996 758.746 79.135 759.843L52.2358 794.118C51.7952 794.679 51.121 795.007 50.4073 795.007Z" fill="url(#paint0_linear_102_53)"/>
<path d="M11.1895 795.007H49.2753C50.7028 795.007 52.0511 794.351 52.9324 793.228L77.5141 761.907C79.2361 759.712 82.4892 759.518 84.4603 761.491L137.824 814.916C138.696 815.789 139.879 816.279 141.113 816.279H196.106C197.089 816.279 198.047 815.968 198.842 815.389L223.415 797.497C225.354 796.086 228.049 796.381 229.636 798.179L256.746 828.883C258.398 830.755 261.234 830.987 263.168 829.409L347.541 760.605C349.476 759.027 352.312 759.259 353.964 761.131L380.109 790.742C382.055 792.946 385.531 792.813 387.303 790.467L423.091 743.09C423.711 742.27 424.585 741.678 425.576 741.408L480.107 726.519C481.591 726.113 482.779 725 483.279 723.544L507.324 653.516C507.78 652.188 508.811 651.138 510.13 650.657L550.16 636.085C551.259 635.684 552.167 634.885 552.702 633.845L569.813 600.623C571.511 597.326 576.198 597.247 578.005 600.487L619.259 674.424C620.401 676.471 622.889 677.348 625.062 676.469L684.913 652.259C686.229 651.727 687.229 650.623 687.63 649.262L729.57 506.758C730.27 504.379 732.715 502.968 735.126 503.553L771.249 512.321C773.261 512.809 775.353 511.908 776.381 510.112L808.589 453.83C809.964 451.427 813.122 450.751 815.36 452.381L835.997 467.406C838.302 469.085 841.561 468.312 842.866 465.777L848.058 455.697C849.599 452.703 853.713 452.291 855.819 454.919L896.963 506.274C899.299 509.19 903.947 508.298 905.037 504.724L944.745 374.624C945.565 371.938 948.561 370.587 951.117 371.75L1001.78 394.804C1003.55 395.61 1005.63 395.228 1007 393.847L1050.84 349.657C1051.71 348.777 1052.9 348.282 1054.14 348.282H1118.07C1120.15 348.282 1121.98 349.664 1122.55 351.666L1144.47 429.176C1145.54 432.963 1150.53 433.79 1152.77 430.55L1194.81 369.555" stroke="#3FBFA0" stroke-width="4.64886" stroke-linecap="round"/>
<path d="M869.483 155.796V131.411H874.335V155.796H869.483ZM859.725 146.02V141.186H884.11V146.02H859.725ZM890.892 162V157.96L903.391 145.01C904.726 143.603 905.826 142.371 906.692 141.312C907.57 140.242 908.225 139.226 908.658 138.264C909.091 137.302 909.307 136.28 909.307 135.198C909.307 133.972 909.018 132.914 908.441 132.024C907.864 131.122 907.077 130.431 906.079 129.95C905.081 129.457 903.956 129.21 902.706 129.21C901.383 129.21 900.229 129.481 899.243 130.022C898.257 130.563 897.499 131.326 896.97 132.312C896.441 133.298 896.177 134.453 896.177 135.775H890.856C890.856 133.527 891.373 131.561 892.407 129.877C893.441 128.194 894.86 126.889 896.664 125.964C898.467 125.026 900.517 124.557 902.814 124.557C905.135 124.557 907.179 125.02 908.946 125.946C910.726 126.859 912.115 128.11 913.113 129.697C914.111 131.272 914.61 133.052 914.61 135.036C914.61 136.407 914.351 137.747 913.834 139.058C913.329 140.369 912.445 141.829 911.183 143.441C909.92 145.04 908.165 146.982 905.916 149.266L898.576 156.95V157.22H915.205V162H890.892ZM934.9 162.505C932.423 162.505 930.211 162.078 928.263 161.224C926.327 160.371 924.794 159.186 923.664 157.671C922.546 156.144 921.944 154.377 921.86 152.369H927.524C927.596 153.463 927.963 154.413 928.624 155.218C929.297 156.012 930.175 156.625 931.257 157.058C932.339 157.491 933.542 157.707 934.864 157.707C936.319 157.707 937.606 157.455 938.724 156.95C939.854 156.445 940.738 155.741 941.375 154.84C942.013 153.926 942.331 152.874 942.331 151.683C942.331 150.445 942.013 149.357 941.375 148.419C940.75 147.469 939.83 146.723 938.616 146.182C937.414 145.641 935.959 145.371 934.251 145.371H931.131V140.825H934.251C935.622 140.825 936.824 140.579 937.858 140.086C938.905 139.593 939.722 138.908 940.311 138.03C940.901 137.14 941.195 136.1 941.195 134.91C941.195 133.767 940.937 132.775 940.42 131.934C939.915 131.08 939.193 130.413 938.255 129.932C937.329 129.451 936.235 129.21 934.973 129.21C933.77 129.21 932.646 129.433 931.6 129.877C930.566 130.31 929.724 130.936 929.075 131.753C928.425 132.559 928.077 133.527 928.029 134.657H922.636C922.696 132.661 923.285 130.906 924.403 129.391C925.534 127.875 927.025 126.691 928.876 125.837C930.728 124.984 932.784 124.557 935.045 124.557C937.414 124.557 939.458 125.02 941.177 125.946C942.909 126.859 944.243 128.08 945.181 129.607C946.131 131.134 946.6 132.805 946.588 134.621C946.6 136.689 946.023 138.445 944.856 139.888C943.702 141.33 942.163 142.298 940.239 142.791V143.08C942.692 143.453 944.592 144.427 945.939 146.002C947.297 147.577 947.971 149.531 947.959 151.864C947.971 153.896 947.406 155.717 946.263 157.329C945.133 158.94 943.588 160.208 941.628 161.134C939.668 162.048 937.426 162.505 934.9 162.505ZM967.636 162.613C964.786 162.601 962.352 161.85 960.332 160.359C958.311 158.868 956.766 156.697 955.696 153.848C954.626 150.998 954.091 147.565 954.091 143.549C954.091 139.545 954.626 136.124 955.696 133.286C956.778 130.449 958.33 128.284 960.35 126.793C962.382 125.302 964.811 124.557 967.636 124.557C970.462 124.557 972.885 125.308 974.905 126.811C976.925 128.302 978.47 130.467 979.54 133.304C980.622 136.13 981.163 139.545 981.163 143.549C981.163 147.577 980.628 151.016 979.558 153.866C978.488 156.703 976.943 158.874 974.923 160.377C972.903 161.868 970.474 162.613 967.636 162.613ZM967.636 157.798C970.137 157.798 972.091 156.577 973.498 154.136C974.917 151.695 975.626 148.166 975.626 143.549C975.626 140.483 975.302 137.892 974.652 135.775C974.015 133.647 973.095 132.036 971.893 130.942C970.702 129.835 969.284 129.282 967.636 129.282C965.147 129.282 963.193 130.509 961.774 132.962C960.356 135.415 959.64 138.944 959.628 143.549C959.628 146.627 959.947 149.23 960.584 151.359C961.233 153.475 962.153 155.08 963.344 156.174C964.534 157.256 965.965 157.798 967.636 157.798Z" fill="#8E8E8E"/>
<path d="M1002.64 143.531C1002.64 139.01 1003.24 134.849 1004.43 131.05C1005.62 127.25 1007.36 123.745 1009.64 120.535H1014.58C1013.69 121.725 1012.87 123.186 1012.1 124.918C1011.33 126.649 1010.65 128.549 1010.08 130.617C1009.5 132.673 1009.05 134.807 1008.72 137.02C1008.4 139.22 1008.24 141.391 1008.24 143.531C1008.24 146.393 1008.52 149.29 1009.08 152.224C1009.65 155.158 1010.41 157.882 1011.37 160.395C1012.34 162.908 1013.41 164.958 1014.58 166.545H1009.64C1007.36 163.335 1005.62 159.83 1004.43 156.03C1003.24 152.23 1002.64 148.064 1002.64 143.531ZM1020.2 162V157.96L1032.7 145.01C1034.03 143.603 1035.13 142.371 1036 141.312C1036.88 140.242 1037.53 139.226 1037.96 138.264C1038.4 137.302 1038.61 136.28 1038.61 135.198C1038.61 133.972 1038.32 132.914 1037.75 132.024C1037.17 131.122 1036.38 130.431 1035.38 129.95C1034.39 129.457 1033.26 129.21 1032.01 129.21C1030.69 129.21 1029.54 129.481 1028.55 130.022C1027.56 130.563 1026.81 131.326 1026.28 132.312C1025.75 133.298 1025.48 134.453 1025.48 135.775H1020.16C1020.16 133.527 1020.68 131.561 1021.71 129.877C1022.75 128.194 1024.17 126.889 1025.97 125.964C1027.77 125.026 1029.82 124.557 1032.12 124.557C1034.44 124.557 1036.48 125.02 1038.25 125.946C1040.03 126.859 1041.42 128.11 1042.42 129.697C1043.42 131.272 1043.92 133.052 1043.92 135.036C1043.92 136.407 1043.66 137.747 1043.14 139.058C1042.64 140.369 1041.75 141.829 1040.49 143.441C1039.23 145.04 1037.47 146.982 1035.22 149.266L1027.88 156.95V157.22H1044.51V162H1020.2ZM1054.97 162.343C1053.99 162.343 1053.14 161.994 1052.43 161.297C1051.72 160.587 1051.36 159.733 1051.36 158.735C1051.36 157.749 1051.72 156.908 1052.43 156.21C1053.14 155.501 1053.99 155.146 1054.97 155.146C1055.96 155.146 1056.81 155.501 1057.52 156.21C1058.22 156.908 1058.58 157.749 1058.58 158.735C1058.58 159.397 1058.41 160.004 1058.07 160.557C1057.75 161.098 1057.32 161.531 1056.78 161.856C1056.23 162.18 1055.63 162.343 1054.97 162.343ZM1064.96 154.786V150.276L1080.92 125.062H1084.47V131.699H1082.22L1070.8 149.771V150.06H1092.68V154.786H1064.96ZM1082.47 162V153.415L1082.5 151.359V125.062H1087.79V162H1082.47ZM1111.25 124.557C1112.89 124.569 1114.52 124.869 1116.11 125.459C1117.71 126.048 1119.16 127.01 1120.44 128.344C1121.74 129.679 1122.78 131.483 1123.55 133.755C1124.33 136.016 1124.72 138.829 1124.74 142.196C1124.74 145.431 1124.41 148.311 1123.76 150.836C1123.11 153.349 1122.18 155.471 1120.97 157.202C1119.76 158.934 1118.3 160.25 1116.58 161.152C1114.86 162.054 1112.93 162.505 1110.78 162.505C1108.58 162.505 1106.62 162.072 1104.91 161.206C1103.21 160.341 1101.82 159.144 1100.75 157.617C1099.68 156.078 1099.01 154.311 1098.75 152.315H1104.25C1104.61 153.902 1105.34 155.188 1106.45 156.174C1107.57 157.148 1109.01 157.635 1110.78 157.635C1113.48 157.635 1115.59 156.457 1117.11 154.1C1118.62 151.731 1119.39 148.425 1119.4 144.18H1119.11C1118.48 145.214 1117.7 146.104 1116.76 146.85C1115.84 147.595 1114.8 148.172 1113.64 148.581C1112.49 148.99 1111.26 149.194 1109.95 149.194C1107.82 149.194 1105.88 148.671 1104.14 147.625C1102.4 146.579 1101.01 145.142 1099.97 143.314C1098.94 141.487 1098.42 139.401 1098.42 137.056C1098.42 134.723 1098.95 132.607 1100.01 130.707C1101.08 128.807 1102.57 127.304 1104.48 126.198C1106.41 125.08 1108.66 124.533 1111.25 124.557ZM1111.26 129.246C1109.86 129.246 1108.59 129.595 1107.46 130.292C1106.34 130.978 1105.46 131.91 1104.81 133.088C1104.16 134.254 1103.83 135.553 1103.83 136.984C1103.83 138.415 1104.14 139.713 1104.77 140.88C1105.41 142.034 1106.27 142.954 1107.37 143.639C1108.47 144.312 1109.74 144.649 1111.15 144.649C1112.21 144.649 1113.2 144.445 1114.11 144.036C1115.03 143.627 1115.83 143.062 1116.51 142.341C1117.2 141.607 1117.73 140.777 1118.12 139.852C1118.5 138.926 1118.69 137.952 1118.69 136.93C1118.69 135.571 1118.37 134.308 1117.72 133.142C1117.08 131.976 1116.21 131.038 1115.09 130.328C1113.97 129.607 1112.69 129.246 1111.26 129.246ZM1150.53 155.074V153.126C1150.53 151.731 1150.82 150.457 1151.4 149.302C1151.99 148.136 1152.84 147.204 1153.96 146.507C1155.09 145.797 1156.45 145.443 1158.05 145.443C1159.69 145.443 1161.06 145.791 1162.17 146.489C1163.27 147.186 1164.11 148.118 1164.67 149.284C1165.25 150.451 1165.54 151.731 1165.54 153.126V155.074C1165.54 156.469 1165.25 157.749 1164.67 158.916C1164.1 160.07 1163.25 161.002 1162.13 161.711C1161.02 162.409 1159.66 162.758 1158.05 162.758C1156.43 162.758 1155.06 162.409 1153.94 161.711C1152.82 161.002 1151.98 160.07 1151.4 158.916C1150.82 157.749 1150.53 156.469 1150.53 155.074ZM1154.73 153.126V155.074C1154.73 156.108 1154.98 157.046 1155.47 157.888C1155.97 158.729 1156.83 159.15 1158.05 159.15C1159.27 159.15 1160.12 158.729 1160.6 157.888C1161.08 157.046 1161.32 156.108 1161.32 155.074V153.126C1161.32 152.092 1161.08 151.154 1160.61 150.313C1160.16 149.471 1159.3 149.05 1158.05 149.05C1156.85 149.05 1156 149.471 1155.49 150.313C1154.99 151.154 1154.73 152.092 1154.73 153.126ZM1131.96 133.936V131.988C1131.96 130.593 1132.24 129.312 1132.82 128.146C1133.41 126.98 1134.26 126.048 1135.38 125.35C1136.51 124.653 1137.88 124.304 1139.48 124.304C1141.11 124.304 1142.48 124.653 1143.59 125.35C1144.69 126.048 1145.53 126.98 1146.1 128.146C1146.66 129.312 1146.94 130.593 1146.94 131.988V133.936C1146.94 135.33 1146.65 136.611 1146.08 137.777C1145.51 138.932 1144.67 139.864 1143.55 140.573C1142.45 141.27 1141.09 141.619 1139.48 141.619C1137.84 141.619 1136.46 141.27 1135.35 140.573C1134.24 139.864 1133.4 138.932 1132.82 137.777C1132.24 136.611 1131.96 135.33 1131.96 133.936ZM1136.18 131.988V133.936C1136.18 134.97 1136.42 135.908 1136.9 136.749C1137.39 137.591 1138.25 138.012 1139.48 138.012C1140.68 138.012 1141.52 137.591 1142 136.749C1142.49 135.908 1142.74 134.97 1142.74 133.936V131.988C1142.74 130.954 1142.51 130.016 1142.04 129.174C1141.57 128.332 1140.71 127.912 1139.48 127.912C1138.27 127.912 1137.42 128.332 1136.92 129.174C1136.42 130.016 1136.18 130.954 1136.18 131.988ZM1133.67 162L1159.06 125.062H1163.37L1137.98 162H1133.67ZM1183.76 143.531C1183.76 148.064 1183.16 152.23 1181.97 156.03C1180.78 159.83 1179.04 163.335 1176.76 166.545H1171.82C1172.71 165.355 1173.53 163.894 1174.3 162.162C1175.07 160.431 1175.75 158.537 1176.32 156.481C1176.9 154.413 1177.35 152.272 1177.68 150.06C1178 147.848 1178.16 145.671 1178.16 143.531C1178.16 140.681 1177.88 137.789 1177.32 134.855C1176.75 131.922 1175.99 129.198 1175.03 126.685C1174.06 124.172 1172.99 122.122 1171.82 120.535H1176.76C1179.04 123.745 1180.78 127.25 1181.97 131.05C1183.16 134.849 1183.76 139.01 1183.76 143.531Z" fill="#3FBFA0"/>
<path d="M7.40089 171.931V163.341L28.9398 129.407H36.3462V141.298H31.9629L18.3845 162.786V163.189H48.9925V171.931H7.40089ZM32.1644 181V169.311L32.3659 165.507V129.407H42.5938V181H32.1644ZM58.3008 181L79.6887 138.678V138.325H54.774V129.407H90.9746V138.451L69.5616 181H58.3008ZM117.571 182.134C113.238 182.117 109.509 181.05 106.386 178.934C103.279 176.818 100.885 173.753 99.206 169.739C97.5433 165.725 96.7204 160.897 96.7372 155.254C96.7372 149.628 97.5685 144.833 99.2312 140.87C100.911 136.906 103.304 133.891 106.411 131.826C109.535 129.743 113.255 128.702 117.571 128.702C121.887 128.702 125.599 129.743 128.706 131.826C131.829 133.908 134.231 136.931 135.91 140.895C137.59 144.841 138.421 149.628 138.404 155.254C138.404 160.914 137.565 165.751 135.885 169.764C134.223 173.778 131.838 176.843 128.731 178.959C125.624 181.076 121.904 182.134 117.571 182.134ZM117.571 173.09C120.527 173.09 122.886 171.603 124.65 168.631C126.413 165.658 127.286 161.199 127.27 155.254C127.27 151.341 126.867 148.083 126.06 145.48C125.271 142.876 124.146 140.92 122.685 139.61C121.24 138.3 119.536 137.645 117.571 137.645C114.632 137.645 112.28 139.114 110.517 142.054C108.754 144.993 107.864 149.393 107.847 155.254C107.847 159.218 108.241 162.526 109.031 165.18C109.837 167.816 110.971 169.798 112.432 171.125C113.893 172.435 115.606 173.09 117.571 173.09ZM150.477 181.655C148.815 181.655 147.387 181.067 146.195 179.892C145.019 178.699 144.431 177.272 144.431 175.609C144.431 173.963 145.019 172.552 146.195 171.377C147.387 170.201 148.815 169.613 150.477 169.613C152.09 169.613 153.501 170.201 154.71 171.377C155.919 172.552 156.524 173.963 156.524 175.609C156.524 176.717 156.238 177.733 155.667 178.657C155.113 179.564 154.382 180.295 153.475 180.849C152.568 181.386 151.569 181.655 150.477 181.655ZM183.384 182.134C179.051 182.117 175.323 181.05 172.199 178.934C169.092 176.818 166.699 173.753 165.019 169.739C163.357 165.725 162.534 160.897 162.551 155.254C162.551 149.628 163.382 144.833 165.045 140.87C166.724 136.906 169.117 133.891 172.224 131.826C175.348 129.743 179.068 128.702 183.384 128.702C187.7 128.702 191.412 129.743 194.519 131.826C197.643 133.908 200.044 136.931 201.724 140.895C203.403 144.841 204.235 149.628 204.218 155.254C204.218 160.914 203.378 165.751 201.699 169.764C200.036 173.778 197.651 176.843 194.544 178.959C191.437 181.076 187.717 182.134 183.384 182.134ZM183.384 173.09C186.34 173.09 188.7 171.603 190.463 168.631C192.227 165.658 193.1 161.199 193.083 155.254C193.083 151.341 192.68 148.083 191.874 145.48C191.085 142.876 189.959 140.92 188.498 139.61C187.054 138.3 185.349 137.645 183.384 137.645C180.445 137.645 178.094 139.114 176.331 142.054C174.567 144.993 173.677 149.393 173.66 155.254C173.66 159.218 174.055 162.526 174.844 165.18C175.65 167.816 176.784 169.798 178.245 171.125C179.706 172.435 181.419 173.09 183.384 173.09ZM232.225 182.134C227.892 182.117 224.163 181.05 221.04 178.934C217.933 176.818 215.539 173.753 213.86 169.739C212.197 165.725 211.374 160.897 211.391 155.254C211.391 149.628 212.223 144.833 213.885 140.87C215.565 136.906 217.958 133.891 221.065 131.826C224.189 129.743 227.909 128.702 232.225 128.702C236.541 128.702 240.253 129.743 243.36 131.826C246.483 133.908 248.885 136.931 250.564 140.895C252.244 144.841 253.075 149.628 253.058 155.254C253.058 160.914 252.219 165.751 250.539 169.764C248.877 173.778 246.492 176.843 243.385 178.959C240.278 181.076 236.558 182.134 232.225 182.134ZM232.225 173.09C235.181 173.09 237.54 171.603 239.304 168.631C241.067 165.658 241.94 161.199 241.924 155.254C241.924 151.341 241.521 148.083 240.714 145.48C239.925 142.876 238.8 140.92 237.339 139.61C235.894 138.3 234.19 137.645 232.225 137.645C229.286 137.645 226.934 139.114 225.171 142.054C223.408 144.993 222.518 149.393 222.501 155.254C222.501 159.218 222.895 162.526 223.685 165.18C224.491 167.816 225.625 169.798 227.086 171.125C228.547 172.435 230.26 173.09 232.225 173.09Z" fill="#3FBFA0"/>
<path d="M15.3482 67V16.9709H35.3794C39.0599 16.9709 42.1298 17.5165 44.5889 18.6076C47.048 19.6987 48.8964 21.2133 50.1341 23.1513C51.3718 25.073 51.9906 27.2878 51.9906 29.7957C51.9906 31.75 51.5998 33.4681 50.8181 34.9501C50.0364 36.4158 48.9615 37.6209 47.5935 38.5655C46.2418 39.4938 44.6947 40.1533 42.9522 40.5442V41.0328C44.8576 41.1142 46.6408 41.6516 48.302 42.645C49.9794 43.6384 51.3392 45.0308 52.3815 46.8223C53.4238 48.5974 53.9449 50.7145 53.9449 53.1736C53.9449 55.8281 53.2853 58.1977 51.9662 60.2822C50.6634 62.3505 48.7335 63.9872 46.1767 65.1923C43.6199 66.3974 40.4686 67 36.723 67H15.3482ZM25.9257 58.3524H34.5489C37.4965 58.3524 39.6462 57.7905 40.9979 56.6668C42.3496 55.5269 43.0255 54.0123 43.0255 52.1232C43.0255 50.7389 42.6916 49.5175 42.0239 48.4589C41.3562 47.4004 40.4035 46.5698 39.1658 45.9673C37.9444 45.3647 36.4868 45.0634 34.7931 45.0634H25.9257V58.3524ZM25.9257 37.9059H33.7671C35.2166 37.9059 36.5031 37.6535 37.6268 37.1487C38.7668 36.6275 39.6625 35.8947 40.3139 34.9501C40.9816 34.0056 41.3155 32.8737 41.3155 31.5546C41.3155 29.7469 40.6722 28.2893 39.3856 27.1819C38.1154 26.0745 36.3077 25.5208 33.9626 25.5208H25.9257V37.9059ZM71.3317 67.7084C68.9377 67.7084 66.8043 67.2931 64.9315 66.4626C63.0587 65.6157 61.5767 64.3699 60.4856 62.7251C59.4107 61.0639 58.8733 58.9957 58.8733 56.5203C58.8733 54.4357 59.256 52.685 60.0214 51.2682C60.7868 49.8514 61.8291 48.7114 63.1482 47.8482C64.4674 46.9851 65.9656 46.3337 67.643 45.894C69.3367 45.4543 71.1119 45.1448 72.9684 44.9657C75.1507 44.7377 76.9095 44.526 78.2449 44.3306C79.5803 44.1189 80.5493 43.8094 81.1519 43.4023C81.7544 42.9952 82.0557 42.3926 82.0557 41.5946V41.448C82.0557 39.9009 81.5672 38.7039 80.59 37.8571C79.6292 37.0102 78.2612 36.5868 76.4861 36.5868C74.6132 36.5868 73.1231 37.0021 72.0157 37.8326C70.9083 38.6469 70.1754 39.6729 69.8172 40.9106L60.1924 40.1289C60.681 37.8489 61.6418 35.8784 63.075 34.2173C64.5081 32.5399 66.3565 31.2533 68.6202 30.3576C70.9001 29.4456 73.5384 28.9896 76.5349 28.9896C78.6195 28.9896 80.6145 29.2339 82.5199 29.7225C84.4416 30.211 86.1434 30.9683 87.6254 31.9943C89.1236 33.0203 90.3043 34.3394 91.1675 35.9517C92.0306 37.5477 92.4622 39.4612 92.4622 41.6923V67H82.5931V61.7968H82.3C81.6974 62.9693 80.8913 64.0035 79.8816 64.8992C78.8719 65.7786 77.6586 66.4707 76.2418 66.9756C74.825 67.4641 73.1883 67.7084 71.3317 67.7084ZM74.312 60.5265C75.8428 60.5265 77.1945 60.2252 78.3671 59.6227C79.5396 59.0038 80.4597 58.1733 81.1274 57.131C81.7952 56.0887 82.129 54.908 82.129 53.5889V49.6071C81.8033 49.8188 81.3554 50.0142 80.7855 50.1934C80.2317 50.3562 79.6048 50.5109 78.9045 50.6575C78.2042 50.7878 77.5039 50.9099 76.8036 51.0239C76.1034 51.1216 75.4682 51.2112 74.8982 51.2926C73.6768 51.4718 72.6101 51.7568 71.6981 52.1476C70.7862 52.5385 70.0777 53.0677 69.5729 53.7355C69.068 54.3869 68.8156 55.2011 68.8156 56.1783C68.8156 57.5951 69.3286 58.6781 70.3546 59.4272C71.3969 60.1601 72.716 60.5265 74.312 60.5265ZM110.942 45.3077V67H100.536V29.4782H110.454V36.0982H110.893C111.724 33.916 113.116 32.1897 115.071 30.9194C117.025 29.6329 119.394 28.9896 122.179 28.9896C124.785 28.9896 127.057 29.5596 128.995 30.6996C130.933 31.8396 132.439 33.4681 133.514 35.5852C134.589 37.6861 135.126 40.194 135.126 43.1092V67H124.72V44.9657C124.736 42.6694 124.15 40.878 122.961 39.5915C121.772 38.2886 120.135 37.6372 118.051 37.6372C116.65 37.6372 115.413 37.9385 114.338 38.5411C113.279 39.1436 112.449 40.023 111.846 41.1793C111.26 42.3193 110.958 43.6954 110.942 45.3077ZM152.757 56.2027L152.782 43.7199H154.296L166.315 29.4782H178.26L162.113 48.3368H159.646L152.757 56.2027ZM143.328 67V16.9709H153.734V67H143.328ZM166.779 67L155.737 50.6575L162.675 43.3046L178.969 67H166.779ZM199.482 67V16.9709H210.06V58.2791H231.508V67H199.482ZM238.317 67V29.4782H248.724V67H238.317ZM243.545 24.6414C241.998 24.6414 240.671 24.1284 239.563 23.1024C238.472 22.0601 237.926 20.8143 237.926 19.3649C237.926 17.9318 238.472 16.7022 239.563 15.6762C240.671 14.6339 241.998 14.1128 243.545 14.1128C245.092 14.1128 246.411 14.6339 247.502 15.6762C248.61 16.7022 249.163 17.9318 249.163 19.3649C249.163 20.8143 248.61 22.0601 247.502 23.1024C246.411 24.1284 245.092 24.6414 243.545 24.6414ZM257.06 67V29.4782H266.978V36.0982H267.417C268.199 33.8997 269.502 32.1653 271.326 30.895C273.15 29.6248 275.332 28.9896 277.873 28.9896C280.446 28.9896 282.636 29.6329 284.444 30.9194C286.252 32.1897 287.457 33.916 288.059 36.0982H288.45C289.216 33.9486 290.6 32.2304 292.603 30.9439C294.622 29.641 297.008 28.9896 299.76 28.9896C303.262 28.9896 306.104 30.1052 308.286 32.3363C310.484 34.5511 311.584 37.6942 311.584 41.7656V67H301.202V43.8176C301.202 41.733 300.648 40.1696 299.541 39.1273C298.433 38.0851 297.049 37.5639 295.388 37.5639C293.499 37.5639 292.025 38.1665 290.966 39.3716C289.908 40.5605 289.378 42.132 289.378 44.0863V67H279.29V43.5977C279.29 41.7575 278.76 40.2918 277.702 39.2006C276.659 38.1095 275.283 37.5639 273.573 37.5639C272.417 37.5639 271.375 37.8571 270.447 38.4434C269.535 39.0133 268.81 39.8195 268.272 40.8618C267.735 41.8877 267.466 43.0929 267.466 44.4771V67H257.06ZM319.804 67V29.4782H330.21V67H319.804ZM325.031 24.6414C323.484 24.6414 322.157 24.1284 321.05 23.1024C319.959 22.0601 319.413 20.8143 319.413 19.3649C319.413 17.9318 319.959 16.7022 321.05 15.6762C322.157 14.6339 323.484 14.1128 325.031 14.1128C326.579 14.1128 327.898 14.6339 328.989 15.6762C330.096 16.7022 330.65 17.9318 330.65 19.3649C330.65 20.8143 330.096 22.0601 328.989 23.1024C327.898 24.1284 326.579 24.6414 325.031 24.6414ZM358.504 29.4782V37.2952H335.908V29.4782H358.504ZM341.038 20.4886H351.445V55.4699C351.445 56.4307 351.591 57.1798 351.884 57.7173C352.177 58.2384 352.585 58.6048 353.106 58.8165C353.643 59.0282 354.262 59.1341 354.962 59.1341C355.451 59.1341 355.939 59.0934 356.428 59.012C356.916 58.9142 357.291 58.841 357.552 58.7921L359.188 66.5359C358.667 66.6987 357.934 66.886 356.99 67.0977C356.045 67.3257 354.897 67.4641 353.545 67.513C351.037 67.6107 348.839 67.2769 346.95 66.5114C345.077 65.746 343.619 64.5572 342.577 62.9449C341.535 61.3326 341.022 59.297 341.038 56.8378V20.4886ZM381.98 67.7328C378.12 67.7328 374.798 66.9511 372.013 65.3877C369.245 63.808 367.111 61.5769 365.613 58.6944C364.115 55.7956 363.366 52.3675 363.366 48.4101C363.366 44.5504 364.115 41.163 365.613 38.2479C367.111 35.3328 369.22 33.061 371.94 31.4324C374.676 29.8039 377.884 28.9896 381.565 28.9896C384.04 28.9896 386.344 29.3886 388.478 30.1866C390.627 30.9683 392.5 32.149 394.096 33.7287C395.709 35.3084 396.963 37.2952 397.858 39.6892C398.754 42.0669 399.202 44.8517 399.202 48.0437V50.9018H367.518V44.4527H389.406C389.406 42.9544 389.08 41.6272 388.429 40.4709C387.778 39.3146 386.874 38.4108 385.717 37.7594C384.577 37.0917 383.25 36.7578 381.736 36.7578C380.156 36.7578 378.755 37.1242 377.534 37.8571C376.329 38.5736 375.384 39.5426 374.7 40.764C374.016 41.9692 373.666 43.3127 373.65 44.7947V50.9262C373.65 52.7827 373.992 54.3869 374.676 55.7386C375.376 57.0903 376.361 58.1325 377.632 58.8654C378.902 59.5982 380.408 59.9647 382.151 59.9647C383.307 59.9647 384.366 59.8018 385.327 59.4761C386.287 59.1504 387.11 58.6618 387.794 58.0104C388.478 57.359 388.999 56.561 389.357 55.6164L398.982 56.2516C398.493 58.5641 397.492 60.5835 395.977 62.3098C394.479 64.0198 392.541 65.3552 390.163 66.316C387.802 67.2606 385.074 67.7328 381.98 67.7328ZM419.819 67.6107C416.969 67.6107 414.388 66.8779 412.076 65.4122C409.779 63.9302 407.955 61.7561 406.604 58.8898C405.268 56.0073 404.6 52.4733 404.6 48.2879C404.6 43.9886 405.293 40.4139 406.677 37.5639C408.061 34.6977 409.901 32.5561 412.198 31.1393C414.51 29.7062 417.043 28.9896 419.795 28.9896C421.896 28.9896 423.646 29.3479 425.047 30.0645C426.464 30.7647 427.604 31.6442 428.467 32.7027C429.346 33.745 430.014 34.771 430.47 35.7807H430.788V16.9709H441.17V67H430.91V60.9906H430.47C429.981 62.0329 429.289 63.067 428.394 64.093C427.514 65.1027 426.366 65.9414 424.949 66.6091C423.549 67.2769 421.839 67.6107 419.819 67.6107ZM423.117 59.3295C424.794 59.3295 426.211 58.8735 427.368 57.9615C428.54 57.0333 429.436 55.7386 430.055 54.0774C430.69 52.4163 431.007 50.4702 431.007 48.2391C431.007 46.008 430.698 44.07 430.079 42.4252C429.46 40.7803 428.565 39.5101 427.392 38.6144C426.219 37.7186 424.794 37.2708 423.117 37.2708C421.407 37.2708 419.966 37.7349 418.793 38.6632C417.621 39.5915 416.733 40.878 416.131 42.5229C415.528 44.1677 415.227 46.0731 415.227 48.2391C415.227 50.4213 415.528 52.3512 416.131 54.0286C416.749 55.6897 417.637 56.9926 418.793 57.9371C419.966 58.8654 421.407 59.3295 423.117 59.3295ZM468.822 41.9855C468.822 35.8295 469.62 30.1703 471.216 25.0078C472.829 19.829 475.125 15.0655 478.105 10.7173H483.186C482.014 12.3295 480.914 14.3164 479.888 16.6778C478.879 19.0229 477.991 21.6041 477.226 24.4215C476.46 27.2226 475.858 30.1215 475.418 33.118C474.995 36.1145 474.783 39.0703 474.783 41.9855C474.783 45.8614 475.157 49.7944 475.907 53.7843C476.656 57.7743 477.665 61.4792 478.936 64.8992C480.206 68.3191 481.623 71.1039 483.186 73.2536H478.105C475.125 68.9054 472.829 64.15 471.216 58.9875C469.62 53.8087 468.822 48.1414 468.822 41.9855ZM492.475 67V16.9709H509.966C513.451 16.9709 516.325 17.5735 518.589 18.7786C520.853 19.9674 522.538 21.5716 523.646 23.591C524.753 25.5941 525.307 27.8171 525.307 30.2599C525.307 32.4096 524.924 34.1847 524.159 35.5852C523.409 36.9858 522.416 38.0932 521.178 38.9075C519.957 39.7218 518.63 40.3243 517.196 40.7152V41.2037C518.727 41.3015 520.266 41.8389 521.813 42.816C523.361 43.7931 524.655 45.1937 525.697 47.0177C526.74 48.8417 527.261 51.0728 527.261 53.711C527.261 56.219 526.691 58.4745 525.551 60.4777C524.411 62.4808 522.611 64.0686 520.152 65.2412C517.693 66.4137 514.493 67 510.552 67H492.475ZM498.533 61.6258H510.552C514.509 61.6258 517.319 60.8604 518.98 59.3295C520.657 57.7824 521.496 55.9096 521.496 53.711C521.496 52.0173 521.064 50.4539 520.201 49.0208C519.338 47.5714 518.108 46.4151 516.512 45.552C514.916 44.6726 513.027 44.2329 510.845 44.2329H498.533V61.6258ZM498.533 38.9563H509.77C511.594 38.9563 513.239 38.5981 514.705 37.8815C516.187 37.1649 517.359 36.1552 518.222 34.8524C519.102 33.5496 519.542 32.0187 519.542 30.2599C519.542 28.0613 518.776 26.1967 517.245 24.6658C515.714 23.1187 513.288 22.3451 509.966 22.3451H498.533V38.9563ZM543.274 16.9709V67H537.215V16.9709H543.274ZM555.421 67V16.9709H561.479V61.6258H584.734V67H555.421ZM605.645 41.9855C605.645 48.1414 604.839 53.8087 603.227 58.9875C601.631 64.15 599.343 68.9054 596.362 73.2536H591.281C592.454 71.6414 593.545 69.6545 594.555 67.2931C595.581 64.948 596.476 62.3749 597.242 59.5738C598.007 56.7564 598.602 53.8494 599.025 50.8529C599.465 47.8401 599.685 44.8843 599.685 41.9855C599.685 38.1095 599.31 34.1766 598.561 30.1866C597.812 26.1966 596.802 22.4917 595.532 19.0717C594.262 15.6518 592.845 12.867 591.281 10.7173H596.362C599.343 15.0655 601.631 19.829 603.227 25.0078C604.839 30.1703 605.645 35.8295 605.645 41.9855Z" fill="#3E3E3E"/>
<defs>
<linearGradient id="paint0_linear_102_53" x1="602.999" y1="348.282" x2="602.999" y2="874.936" gradientUnits="userSpaceOnUse">
<stop stop-color="#EEFEF2"/>
<stop offset="1" stop-color="#EEFEF2" stop-opacity="0"/>
</linearGradient>
</defs>
</svg>
